<?xml version="1.0" encoding="utf-8"?>
<!-- Generator: Adobe Illustrator 24.2.1, SVG Export Plug-In . SVG Version: 6.00 Build 0)  -->
<svg version="1.1" id="Layer_1" xmlns="http://www.w3.org/2000/svg" xmlns:xlink="http://www.w3.org/1999/xlink" x="0px" y="0px"
	 viewBox="0 0 512 512" style="enable-background:new 0 0 512 512;" xml:space="preserve">
<style type="text/css">
	.st0{fill:#2AD85B;}
	.st1{fill:#05B8E2;}
	.st2{fill:#FF0000;}
</style>
<g id="WAZ2bp_1_">
	<g>
		<path class="st0" d="M67.9,353.5c-9.6-3.5-17.2-5.5-24.2-8.8c-15.9-7.6-24.5-19.5-24.3-38.3c0.6-52.7,0.1-105.4,0-158.2
			C19.3,110.4,40.5,88.4,79,87.3c23.5-0.6,47-0.1,70.5-0.1c71.5,0,143,0,214.5,0c40,0,59.9,19.8,59.9,59.2c0,52.2,0.1,104.4,0,156.6
			c-0.1,29.8-13.5,46.6-43.7,48.2c-41.1,2.1-82.4,1.3-123.6,1.6c-32.9,0.3-67.5-6-98.2,2.2c-30.6,8.2-57.4,30.9-85.9,47.2
			c-5.7,3.3-11.5,6.5-19.9,11.3C58.2,391.9,63,372.9,67.9,353.5z M246.2,213.5c0.2-13.5-11.3-25.1-24.6-25.1
			c-12.7,0.1-23.9,10.8-24.4,23.7c-0.6,13.4,10.5,25.4,23.9,25.8C234.3,238.3,246.1,227,246.2,213.5z M146.6,212.8
			c-0.2-13.5-11.9-24.8-25.2-24.3c-13.4,0.5-24.3,12.4-23.6,25.9c0.6,12.8,11.7,23.6,24.5,23.6C135.5,238,146.8,226.3,146.6,212.8z
			 M345.9,212.9c-0.2-13.3-12.2-24.8-25.4-24.4c-12.5,0.4-23.8,11.8-24.1,24.3c-0.3,13.1,11.6,25.2,24.7,25.2
			C334.5,237.9,346.1,226.1,345.9,212.9z"/>
		<g>
			<path class="st1" d="M446.9,187.3c35.3-4.1,49.7,8,49.9,40.6c0.2,48.5,0.2,97.1,0,145.6c-0.1,29.1-7,38.8-34.6,49.5
				c3.1,13.3,6.3,26.8,10.1,43.3c-22.9-13.4-42.7-25.9-63.4-36.7c-9.2-4.8-20.3-8.3-30.6-8.4c-57.9-0.8-115.9,0-173.8-0.5
				c-31.9-0.3-50.4-19-48.7-49.8c5.4,0,10.9,0,16.5,0c75.7,0.1,151.3,0.2,227,0.1c35.3,0,47.6-12.7,47.6-48.4
				C447,277.8,446.9,233,446.9,187.3z"/>
		</g>
	</g>
</g>
<path class="st2" d="M258.2,292.9c-45.3,0-81.9,36.7-81.9,81.9s36.7,81.9,81.9,81.9s81.9-36.7,81.9-81.9S303.4,292.9,258.2,292.9z
	 M258.2,321.1c9.2,0,17.9,2.3,25.5,6.4l-72.9,72.9c-4.1-7.6-6.4-16.3-6.4-25.5C204.4,345.2,228.5,321.1,258.2,321.1z M258.2,428.7
	c-10.1,0-19.5-2.8-27.6-7.6l73.8-73.8c4.8,8.1,7.6,17.5,7.6,27.6C312,404.6,287.9,428.7,258.2,428.7z"/>
</svg>
